<svg xmlns="http://www.w3.org/2000/svg" viewBox="0 0 120 120" width="120" height="120">
  <rect x="4" y="4" width="112" height="112" rx="26" fill="#ffe9d2" stroke="#f0c9a2" stroke-width="3"/>
  <g fill="none" stroke="#33302b" stroke-width="5" stroke-linecap="round" stroke-linejoin="round">
    <!-- héros : gros poumons + microbe -->
    <path d="M60 20 v14"/>
    <path d="M60 34 q0 8 -10 12"/>
    <path d="M60 34 q0 8 10 12"/>
    <ellipse cx="41" cy="68" rx="15" ry="22" fill="#ff9a9a"/>
    <ellipse cx="79" cy="68" rx="15" ry="22" fill="#ff9a9a"/>
    <circle cx="60" cy="78" r="9" fill="#9ed36a"/>
    <path d="M60 66 v-6"/>
    <path d="M60 90 v6"/>
    <path d="M48 78 h-6"/>
    <path d="M72 78 h6"/>
    <path d="M52 70 l-5 -5"/>
    <path d="M68 70 l5 -5"/>
    <path d="M52 86 l-5 5"/>
    <path d="M68 86 l5 5"/>
    <circle cx="57" cy="77" r="1.7" fill="#33302b" stroke="none"/>
    <circle cx="63" cy="77" r="1.7" fill="#33302b" stroke="none"/>
  </g>
</svg>
