<svg xmlns="http://www.w3.org/2000/svg" viewBox="0 0 120 120" width="120" height="120">
  <rect x="4" y="4" width="112" height="112" rx="26" fill="#fffdf5" stroke="#e6ddc4" stroke-width="2"/>
  <g fill="none" stroke="#33302b" stroke-width="3.2" stroke-linecap="round" stroke-linejoin="round">
<circle cx="74" cy="24" r="9" fill="#ffd4a3" stroke="#33302b"/>
    <path d="M33 52 Q33 22 60 22 Q87 22 87 52 Q60 40 33 52 Z" fill="#8a5a34"/>
    <circle cx="60" cy="58" r="27" fill="#ffd4a3"/>
    <path d="M45 55 h10"/><path d="M65 55 h10"/><path d="M50 74 q10 -7 20 0"/><g transform="rotate(18 74 22)"><rect x="67" y="18" width="14" height="8" rx="2.5" fill="#ffd9a0" stroke="#33302b"/><path d="M74 18 v8 M70 22 h8" stroke="#33302b"/></g>
             <path d="M90 17.8 l1.1199999999999999 3.08 3.08 1.1199999999999999 -3.08 1.1199999999999999 -1.1199999999999999 3.08 -1.1199999999999999 -3.08 -3.08 -1.1199999999999999 3.08 -1.1199999999999999 z" fill="#ffd447"/><path d="M58 11.4 l0.96 2.64 2.64 0.96 -2.64 0.96 -0.96 2.64 -0.96 -2.64 -2.64 -0.96 2.64 -0.96 z" fill="#ffd447"/>
  </g>
</svg>