<svg xmlns="http://www.w3.org/2000/svg" viewBox="0 0 120 120" width="120" height="120">
  <rect x="4" y="4" width="112" height="112" rx="26" fill="#fffdf5" stroke="#e6ddc4" stroke-width="2"/>
  <g fill="none" stroke="#33302b" stroke-width="3.2" stroke-linecap="round" stroke-linejoin="round">

    <path d="M33 52 Q33 22 60 22 Q87 22 87 52 Q60 40 33 52 Z" fill="#8a5a34"/>
    <circle cx="60" cy="58" r="27" fill="#ffd4a3"/>
    <path d="M45 55 h10"/><path d="M65 55 h10"/><path d="M50 68 q10 11 20 0 z" fill="#33302b" stroke="none"/><path d="M55 74 q5 7 10 0 z" fill="#ff8a8a" stroke="none"/><path d="M80 64 q10 -3 9 8"/><circle cx="90" cy="58" r="3.2" fill="#fff"/><circle cx="97" cy="65" r="2.6" fill="#fff"/><circle cx="31" cy="58" r="3.2" fill="#fff"/><circle cx="24" cy="64" r="2.6" fill="#fff"/>
  </g>
</svg>