<svg xmlns="http://www.w3.org/2000/svg" viewBox="0 0 120 120" width="120" height="120">
  <rect x="4" y="4" width="112" height="112" rx="26" fill="#fffdf5" stroke="#e6ddc4" stroke-width="2"/>
  <g fill="none" stroke="#33302b" stroke-width="3.2" stroke-linecap="round" stroke-linejoin="round">

    <path d="M33 52 Q33 22 60 22 Q87 22 87 52 Q60 40 33 52 Z" fill="#8a5a34"/>
    <circle cx="60" cy="58" r="27" fill="#ffd4a3"/>
    <path d="M44 48 l10 3"/><path d="M76 48 l-10 3"/><path d="M45 55 h10"/><path d="M65 55 h10"/><rect x="49" y="67" width="22" height="9" rx="2" fill="#fff"/><path d="M56 67 v9 M63 67 v9 M49 71.5 h22"/><path d="M48 84 q12 -7 24 0" fill="#ffd4a3"/><path d="M52 82 q8 6 16 0" stroke="#e23b3b"/>
             <path d="M60 80 l-2 -6 M60 80 l2 -6 M67 82 l1 -6 M53 82 l-1 -6" stroke="#e2a13b"/>
  </g>
</svg>