<svg xmlns="http://www.w3.org/2000/svg" viewBox="0 0 120 120" width="120" height="120">
  <rect x="4" y="4" width="112" height="112" rx="26" fill="#fffdf5" stroke="#e6ddc4" stroke-width="2"/>
  <g fill="none" stroke="#33302b" stroke-width="3.2" stroke-linecap="round" stroke-linejoin="round">

    <path d="M33 52 Q33 22 60 22 Q87 22 87 52 Q60 40 33 52 Z" fill="#8a5a34"/>
    <circle cx="60" cy="58" r="27" fill="#ffd4a3"/>
    <path d="M44 48 l10 3"/><path d="M76 48 l-10 3"/><path d="M45 55 h10"/><path d="M65 55 h10"/><path d="M50 74 q10 -7 20 0"/><path d="M34 84 q9 -6 17 -1" fill="#ffd4a3" stroke="#33302b"/><path d="M69 83 q8 -5 17 1" fill="#ffd4a3" stroke="#33302b"/>
             <path d="M60 86 a3 3 0 1 1 -3 3 a6 6 0 1 1 6 -6 a9 9 0 1 1 -9 9" fill="none" stroke="#e23b3b" stroke-width="3"/>
  </g>
</svg>