<svg xmlns="http://www.w3.org/2000/svg" viewBox="0 0 120 120" width="120" height="120">
  <rect x="4" y="4" width="112" height="112" rx="26" fill="#fffdf5" stroke="#e6ddc4" stroke-width="2"/>
  <g fill="none" stroke="#33302b" stroke-width="3.2" stroke-linecap="round" stroke-linejoin="round">

    <path d="M33 52 Q33 22 60 22 Q87 22 87 52 Q60 40 33 52 Z" fill="#8a5a34"/>
    <circle cx="60" cy="58" r="27" fill="#ffd4a3"/>
    <circle cx="50" cy="55" r="3.3" fill="#33302b" stroke="none"/><circle cx="70" cy="55" r="3.3" fill="#33302b" stroke="none"/><path d="M50 72 q10 3 20 0"/><path d="M66 20 h34 a6 6 0 0 1 6 6 v14 a6 6 0 0 1 -6 6 h-18 l-7 8 v-8 h-9 a6 6 0 0 1 -6 -6 v-14 a6 6 0 0 1 6 -6 z" fill="#fff"/>
             <circle cx="78" cy="33" r="2.4" fill="#33302b" stroke="none"/><circle cx="86" cy="33" r="2.4" fill="#33302b" stroke="none"/><circle cx="94" cy="33" r="2.4" fill="#33302b" stroke="none"/>
  </g>
</svg>