<svg xmlns="http://www.w3.org/2000/svg" viewBox="0 0 120 120" width="120" height="120">
  <rect x="4" y="4" width="112" height="112" rx="26" fill="#fffdf5" stroke="#e6ddc4" stroke-width="2"/>
  <g fill="none" stroke="#33302b" stroke-width="3.2" stroke-linecap="round" stroke-linejoin="round">

      <ellipse cx="60" cy="58" rx="30" ry="18" fill="#fff" stroke="#33302b"/>
      <path d="M32 60 q26 12 56 0" stroke="#e23b3b"/><path d="M38 54 q6 -3 12 0 M74 55 q-6 -3 -12 0" stroke="#e23b3b"/>
      <circle cx="60" cy="58" r="12" fill="#8fd0ff" stroke="#33302b"/><circle cx="60" cy="58" r="5" fill="#33302b" stroke="none"/><circle cx="64" cy="54" r="2" fill="#fff" stroke="none"/>
      <path d="M60 76 q-6 9 0 13 q6 -4 0 -13 z" fill="#7fd4ff"/><path d="M90 36 l1.6 4.4 4.4 1.6 -4.4 1.6 -1.6 4.4 -1.6 -4.4 -4.4 -1.6 4.4 -1.6 z" fill="#ffd447"/><path d="M30 39.2 l1.2800000000000002 3.5200000000000005 3.5200000000000005 1.2800000000000002 -3.5200000000000005 1.2800000000000002 -1.2800000000000002 3.5200000000000005 -1.2800000000000002 -3.5200000000000005 -3.5200000000000005 -1.2800000000000002 3.5200000000000005 -1.2800000000000002 z" fill="#ffd447"/>
  </g>
</svg>