<svg xmlns="http://www.w3.org/2000/svg" viewBox="0 0 120 120" width="120" height="120">
  <rect x="4" y="4" width="112" height="112" rx="26" fill="#fffdf5" stroke="#e6ddc4" stroke-width="2"/>
  <g fill="none" stroke="#33302b" stroke-width="3.2" stroke-linecap="round" stroke-linejoin="round">

      <circle cx="42" cy="66" r="16" fill="#fff" stroke="#33302b"/>
      <path d="M42 54 l6 5 -2 8 h-8 l-2 -8 z" fill="#33302b" stroke="none"/>
      <path d="M28 62 l6 3 M56 62 l-6 3 M42 80 l0 -4" stroke="#33302b"/>
      <rect x="60" y="58" width="36" height="20" rx="10" fill="#cfd3d8" stroke="#33302b"/>
      <path d="M70 64 v8 M66 68 h8" stroke="#33302b"/><circle cx="86" cy="66" r="2.4" fill="#33302b" stroke="none"/><circle cx="90" cy="72" r="2.4" fill="#33302b" stroke="none"/>
      <circle cx="84" cy="34" r="13" fill="#e23b3b" stroke="#33302b"/><rect x="80" y="29" width="3.4" height="10" rx="1" fill="#fff" stroke="none"/><rect x="86" y="29" width="3.4" height="10" rx="1" fill="#fff" stroke="none"/>
  </g>
</svg>