<svg xmlns="http://www.w3.org/2000/svg" viewBox="0 0 120 120" width="120" height="120">
  <rect x="4" y="4" width="112" height="112" rx="26" fill="#fffdf5" stroke="#e6ddc4" stroke-width="2"/>
  <g fill="none" stroke="#33302b" stroke-width="3.2" stroke-linecap="round" stroke-linejoin="round">

    <path d="M33 52 Q33 22 60 22 Q87 22 87 52 Q60 40 33 52 Z" fill="#8a5a34"/>
    <circle cx="60" cy="58" r="27" fill="#ffd4a3"/>
    <circle cx="50" cy="54" r="7" fill="#fff"/><circle cx="70" cy="54" r="7" fill="#fff"/><circle cx="50" cy="55" r="3" fill="#33302b" stroke="none"/><circle cx="70" cy="55" r="3" fill="#33302b" stroke="none"/><ellipse cx="60" cy="72" rx="7" ry="9" fill="#33302b" stroke="none"/><path d="M20 58 q14 -8 24 4"/><path d="M18 70 q16 -6 26 4"/><path d="M40 62 l6 0 -2 -4"/><path d="M42 74 l6 0 -2 -4"/>
  </g>
</svg>