<svg xmlns="http://www.w3.org/2000/svg" viewBox="0 0 120 120" width="120" height="120">
  <rect x="4" y="4" width="112" height="112" rx="26" fill="#fffdf5" stroke="#e6ddc4" stroke-width="2"/>
  <g fill="none" stroke="#33302b" stroke-width="3.2" stroke-linecap="round" stroke-linejoin="round">

      <path d="M60 22 q-6 9 0 13 q6 -4 0 -13 z" fill="#7fd4ff"/>
      <path d="M42 40 h36 l-5 45 a4 4 0 0 1 -4 3.5 h-18 a4 4 0 0 1 -4 -3.5 z" fill="#eaf6ff" stroke="#33302b"/>
      <path d="M46 58 h28 l-3.6 26 a3 3 0 0 1 -3 2.6 h-15 a3 3 0 0 1 -3 -2.6 z" fill="#7fd4ff" stroke="none"/>
      <path d="M46 58 h28" stroke="#33302b"/>
      <circle cx="55" cy="70" r="2" fill="#fff" stroke="#33302b"/><circle cx="66" cy="78" r="1.6" fill="#fff" stroke="#33302b"/>
  </g>
</svg>