<svg xmlns="http://www.w3.org/2000/svg" viewBox="0 0 120 120" width="120" height="120">
  <rect x="4" y="4" width="112" height="112" rx="26" fill="#fffdf5" stroke="#e6ddc4" stroke-width="2"/>
  <g fill="none" stroke="#33302b" stroke-width="3.2" stroke-linecap="round" stroke-linejoin="round">

    <path d="M33 52 Q33 22 60 22 Q87 22 87 52 Q60 40 33 52 Z" fill="#8a5a34"/>
    <circle cx="60" cy="58" r="27" fill="#ffd4a3"/>
    <path d="M45 55 h10"/><path d="M65 55 h10"/><path d="M50 70 q10 7 20 0"/><path d="M20 46 q-5 12 2 24" opacity="0.4" stroke="#7fd4ff"/><path d="M100 46 q5 12 -2 24" opacity="0.4" stroke="#7fd4ff"/>
             <path d="M60 15.8 l1.1199999999999999 3.08 3.08 1.1199999999999999 -3.08 1.1199999999999999 -1.1199999999999999 3.08 -1.1199999999999999 -3.08 -3.08 -1.1199999999999999 3.08 -1.1199999999999999 z" fill="#ffd447"/>
  </g>
</svg>