<svg xmlns="http://www.w3.org/2000/svg" viewBox="0 0 120 120" width="120" height="120">
  <rect x="4" y="4" width="112" height="112" rx="26" fill="#ffe3ea" stroke="#f0bcc9" stroke-width="3"/>
  <g fill="none" stroke="#33302b" stroke-width="5" stroke-linecap="round" stroke-linejoin="round">
    <!-- héros : personnage zen en méditation -->
    <circle cx="60" cy="36" r="12" fill="#ffd4a3"/>
    <path d="M46 50 q14 -8 28 0 q8 16 -2 24 h-24 q-10 -8 -2 -24 z" fill="#8a63d2"/>
    <path d="M46 56 q-12 10 -8 20"/>
    <path d="M74 56 q12 10 8 20"/>
    <path d="M30 84 q30 -16 60 0 q-10 12 -30 12 q-20 0 -30 -12 z" fill="#5b7fd4"/>
    <path d="M24 30 l2 4.5 4.5 2 -4.5 2 -2 4.5 -2 -4.5 -4.5 -2 4.5 -2 z" fill="#ffd447" stroke="none"/>
    <path d="M94 26 l2 4.5 4.5 2 -4.5 2 -2 4.5 -2 -4.5 -4.5 -2 4.5 -2 z" fill="#ffd447" stroke="none"/>
  </g>
</svg>
