<svg xmlns="http://www.w3.org/2000/svg" viewBox="0 0 120 120" width="120" height="120">
  <rect x="4" y="4" width="112" height="112" rx="26" fill="#dcf5e2" stroke="#b2e0c0" stroke-width="3"/>
  <g fill="none" stroke="#33302b" stroke-width="5" stroke-linecap="round" stroke-linejoin="round">
    <!-- héros : grosse bosse sur la tête + étoiles -->
    <circle cx="56" cy="68" r="24" fill="#ffd4a3"/>
    <circle cx="70" cy="46" r="11" fill="#ff8a9a"/>
    <path d="M66 42 q4 -3 8 0" stroke="#ffffff"/>
    <path d="M84 30 l8 -8"/>
    <path d="M90 44 l11 -3"/>
    <path d="M78 22 l2 -10"/>
    <path d="M45 64 l7 7 m0 -7 l-7 7"/>
    <path d="M64 68 l9 2"/>
    <path d="M48 84 q6 -6 12 0"/>
    <path d="M26 36 l2.5 6 6 2.5 -6 2.5 -2.5 6 -2.5 -6 -6 -2.5 6 -2.5 z" fill="#ffd447" stroke="none"/>
    <path d="M96 64 l2 4.5 4.5 2 -4.5 2 -2 4.5 -2 -4.5 -4.5 -2 4.5 -2 z" fill="#ffd447" stroke="none"/>
  </g>
</svg>
