<svg xmlns="http://www.w3.org/2000/svg" viewBox="0 0 120 120" width="120" height="120">
  <rect x="4" y="4" width="112" height="112" rx="26" fill="#fffdf5" stroke="#e6ddc4" stroke-width="2"/>
  <g fill="none" stroke="#33302b" stroke-width="3.2" stroke-linecap="round" stroke-linejoin="round">

    <path d="M33 52 Q33 22 60 22 Q87 22 87 52 Q60 40 33 52 Z" fill="#8a5a34"/>
    <circle cx="60" cy="58" r="27" fill="#ffd4a3"/>
    <path d="M45 57 q5 -7 10 0"/><path d="M65 57 q5 -7 10 0"/><path d="M47 68 q13 13 26 0 z" fill="#33302b" stroke="none"/><path d="M47 68 q13 13 26 0"/><circle cx="46" cy="65" r="4" fill="#ff9a9a" stroke="none"/><circle cx="74" cy="65" r="4" fill="#ff9a9a" stroke="none"/>
             <path d="M92 34 c-3 -4 -9 -1 -9 4 c0 4 6 8 9 10 c3 -2 9 -6 9 -10 c0 -5 -6 -8 -9 -4 z" fill="#ff8fa3" stroke="#33302b"/>
             <path d="M25 46 c-2.4 -3 -7 -1 -7 3 c0 3 4 5 7 6 c3 -1 7 -3 7 -6 c0 -4 -4.6 -6 -7 -3 z" fill="#ff8fa3" stroke="#33302b"/>
  </g>
</svg>