<svg xmlns="http://www.w3.org/2000/svg" viewBox="0 0 120 120" width="120" height="120">
  <rect x="4" y="4" width="112" height="112" rx="26" fill="#fffdf5" stroke="#e6ddc4" stroke-width="2"/>
  <g fill="none" stroke="#33302b" stroke-width="3.2" stroke-linecap="round" stroke-linejoin="round">
<ellipse cx="60" cy="94" rx="36" ry="9" fill="#dfeaf7"/>
    <path d="M33 52 Q33 22 60 22 Q87 22 87 52 Q60 40 33 52 Z" fill="#8a5a34"/>
    <circle cx="60" cy="58" r="27" fill="#ffd4a3"/>
    <path d="M45 57 q5 -7 10 0"/><path d="M65 57 q5 -7 10 0"/><path d="M50 70 q10 7 20 0"/><path d="M90 30 a11 11 0 1 0 5 20 a13 13 0 0 1 -5 -20 z" fill="#ffe08a" stroke="#33302b"/><path d="M78 21.8 l1.1199999999999999 3.08 3.08 1.1199999999999999 -3.08 1.1199999999999999 -1.1199999999999999 3.08 -1.1199999999999999 -3.08 -3.08 -1.1199999999999999 3.08 -1.1199999999999999 z" fill="#ffd447"/>
             <path d="M70 44 h9 l-9 9 h9" stroke="#33302b"/>
  </g>
</svg>