<svg xmlns="http://www.w3.org/2000/svg" viewBox="0 0 120 120" width="120" height="120">
  <rect x="4" y="4" width="112" height="112" rx="26" fill="#fff4c2" stroke="#e8dc96" stroke-width="3"/>
  <g fill="none" stroke="#33302b" stroke-width="5" stroke-linecap="round" stroke-linejoin="round">
    <!-- héros : gros bras musclé + étoiles -->
    <path d="M24 82 q0 -24 20 -28 l5 -16 q3 -9 12 -6 q9 3 6 12 l-5 15 q26 0 28 24 v6 q0 7 -7 7 h-52 q-7 0 -7 -8 z" fill="#ffd4a3"/>
    <path d="M44 66 q10 -10 22 -6"/>
    <path d="M92 26 l2.5 6 6 2.5 -6 2.5 -2.5 6 -2.5 -6 -6 -2.5 6 -2.5 z" fill="#ffd447" stroke="none"/>
    <path d="M26 26 l2 4.5 4.5 2 -4.5 2 -2 4.5 -2 -4.5 -4.5 -2 4.5 -2 z" fill="#ffd447" stroke="none"/>
  </g>
</svg>
