<svg xmlns="http://www.w3.org/2000/svg" viewBox="0 0 120 120" width="120" height="120">
  <rect x="4" y="4" width="112" height="112" rx="26" fill="#f6efdc" stroke="#ddd0ae" stroke-width="3"/>
  <g fill="none" stroke="#33302b" stroke-width="5" stroke-linecap="round" stroke-linejoin="round">
    <!-- héros : grande bouche ouverte, gorge qui pique -->
    <circle cx="60" cy="52" r="26" fill="#ffd4a3"/>
    <path d="M46 42 q4 4 8 0"/>
    <path d="M66 42 q4 4 8 0"/>
    <ellipse cx="60" cy="66" rx="14" ry="11" fill="#33302b" stroke="none"/>
    <path d="M50 66 l5 -6 5 6 5 -6 5 6" stroke="#ff5d5d"/>
    <path d="M28 78 l2.5 6 6 2.5 -6 2.5 -2.5 6 -2.5 -6 -6 -2.5 6 -2.5 z" fill="#ffd447" stroke="none"/>
    <path d="M92 76 l2.5 6 6 2.5 -6 2.5 -2.5 6 -2.5 -6 -6 -2.5 6 -2.5 z" fill="#ffd447" stroke="none"/>
  </g>
</svg>
