<svg xmlns="http://www.w3.org/2000/svg" viewBox="0 0 120 120" width="120" height="120">
  <rect x="4" y="4" width="112" height="112" rx="26" fill="#dcecff" stroke="#b4d4f0" stroke-width="3"/>
  <g fill="none" stroke="#33302b" stroke-width="5" stroke-linecap="round" stroke-linejoin="round">
    <!-- héros : lèvres bleues géantes + flocon -->
    <path d="M22 62 q14 -18 28 -9 q6 4 10 4 q4 0 10 -4 q14 -9 28 9 q-16 24 -38 24 q-22 0 -38 -24 z" fill="#5b7fd4"/>
    <path d="M22 62 q20 8 38 8 q18 0 38 -8"/>
    <path d="M36 56 q6 -5 12 -3" stroke="#9fc0ff"/>
    <path d="M94 24 v14 M88 28 l12 6 M100 28 l-12 6"/>
  </g>
</svg>
