<svg xmlns="http://www.w3.org/2000/svg" viewBox="0 0 120 120" width="120" height="120">
  <rect x="4" y="4" width="112" height="112" rx="26" fill="#ffe9d2" stroke="#f0c9a2" stroke-width="3"/>
  <g fill="none" stroke="#33302b" stroke-width="5" stroke-linecap="round" stroke-linejoin="round">
    <!-- héros : ventre + grosse étoile de douleur -->
    <path d="M40 22 h40 q4 24 -2 40 q-4 22 -18 22 q-14 0 -18 -22 q-6 -16 -2 -40 z" fill="#ffd4a3"/>
    <path d="M60 44 l4 10 10 -4 -5 10 10 4 -10 4 5 10 -10 -4 -4 10 -4 -10 -10 4 5 -10 -10 -4 10 -4 -5 -10 10 4 z" fill="#ff5d5d" stroke="none"/>
    <path d="M60 70 q6 0 6 -5 q0 -7 -9 -7" stroke="#ffffff" stroke-width="3.5"/>
  </g>
</svg>
