<svg xmlns="http://www.w3.org/2000/svg" viewBox="0 0 120 120" width="120" height="120">
  <rect x="4" y="4" width="112" height="112" rx="26" fill="#fff4c2" stroke="#e8dc96" stroke-width="3"/>
  <g fill="none" stroke="#33302b" stroke-width="5" stroke-linecap="round" stroke-linejoin="round">
    <!-- héros : grosse dent + éclair de douleur -->
    <path d="M38 42 q0 -18 14 -16 q8 1 8 1 q8 -1 8 -1 q14 -2 14 16 q0 12 -6 22 q-2 26 -8 26 q-6 0 -8 -20 q-2 20 -8 20 q-6 0 -8 -26 q-6 -10 -6 -22 z" fill="#ffffff"/>
    <path d="M92 24 l-8 12 h7 l-9 14" stroke="#ff5d5d" stroke-width="6"/>
    <path d="M26 30 l6 6" stroke="#ff5d5d"/>
    <path d="M22 52 h8" stroke="#ff5d5d"/>
  </g>
</svg>
