<svg xmlns="http://www.w3.org/2000/svg" viewBox="0 0 120 120" width="120" height="120">
  <rect x="4" y="4" width="112" height="112" rx="26" fill="#fffdf5" stroke="#e6ddc4" stroke-width="2"/>
  <g fill="none" stroke="#33302b" stroke-width="3.2" stroke-linecap="round" stroke-linejoin="round">
<circle cx="90" cy="66" r="13" fill="#ffd4a3" stroke="#33302b"/>
    <path d="M33 52 Q33 22 60 22 Q87 22 87 52 Q60 40 33 52 Z" fill="#8a5a34"/>
    <circle cx="60" cy="58" r="27" fill="#ffd4a3"/>
    <path d="M44 48 l10 3"/><path d="M76 48 l-10 3"/><path d="M45 55 h10"/><path d="M65 55 h10"/><rect x="49" y="67" width="22" height="9" rx="2" fill="#fff"/><path d="M56 67 v9 M63 67 v9 M49 71.5 h22"/><path d="M74 84 q9 -3 15 6" fill="#ffd4a3" stroke="#33302b"/>
             <path d="M97 50 q4 -5 9 0 q1 7 -2 12 q-2 -4 -2 -7 q0 3 -2 7 q-4 -5 -3 -12 z" fill="#fff" stroke="#33302b"/>
             <path d="M95 42 l4 -4 M100 42 l-3 -4 M107 48 l3 -3" stroke="#e23b3b"/>
  </g>
</svg>