<svg xmlns="http://www.w3.org/2000/svg" viewBox="0 0 120 120" width="120" height="120">
  <rect x="4" y="4" width="112" height="112" rx="26" fill="#fffdf5" stroke="#e6ddc4" stroke-width="2"/>
  <g fill="none" stroke="#33302b" stroke-width="3.2" stroke-linecap="round" stroke-linejoin="round">

    <path d="M33 52 Q33 22 60 22 Q87 22 87 52 Q60 40 33 52 Z" fill="#8a5a34"/>
    <circle cx="60" cy="58" r="27" fill="#ffd4a3"/>
    <path d="M45 55 h10"/><path d="M65 55 h10"/><path d="M52 72 h16"/><path d="M39 40 q-6 9 0 13 q6 -4 0 -13 z" fill="#7fd4ff"/><path d="M80 42 q-6 9 0 13 q6 -4 0 -13 z" fill="#7fd4ff"/><path d="M33 60 q-5.4 8.1 0 11.700000000000001 q5.4 -3.6 0 -11.700000000000001 z" fill="#7fd4ff"/><path d="M88 60 q-5.4 8.1 0 11.700000000000001 q5.4 -3.6 0 -11.700000000000001 z" fill="#7fd4ff"/><path d="M46 40 q14 -6 28 0"/>
  </g>
</svg>