<svg xmlns="http://www.w3.org/2000/svg" viewBox="0 0 120 120" width="120" height="120">
  <rect x="4" y="4" width="112" height="112" rx="26" fill="#ffe3ea" stroke="#f0bcc9" stroke-width="3"/>
  <g fill="none" stroke="#33302b" stroke-width="5" stroke-linecap="round" stroke-linejoin="round">
    <!-- héros : visage inquiet + grosses gouttes de sueur -->
    <circle cx="58" cy="60" r="24" fill="#ffd4a3"/>
    <path d="M46 50 q5 -4 10 -1"/>
    <path d="M60 49 q5 -3 10 1"/>
    <circle cx="50" cy="58" r="2.6" fill="#33302b" stroke="none"/>
    <circle cx="68" cy="58" r="2.6" fill="#33302b" stroke="none"/>
    <path d="M50 72 q4 -4 8 0 q4 4 8 0"/>
    <path d="M48 40 v5" stroke="#7fd4ff"/>
    <path d="M58 38 v5" stroke="#7fd4ff"/>
    <path d="M68 40 v5" stroke="#7fd4ff"/>
    <path d="M24 38 q8 11 0 17 q-8 -6 0 -17 z" fill="#7fd4ff" stroke="none"/>
    <path d="M94 42 q8 11 0 17 q-8 -6 0 -17 z" fill="#7fd4ff" stroke="none"/>
    <path d="M92 76 q7 9 0 14 q-7 -5 0 -14 z" fill="#7fd4ff" stroke="none"/>
  </g>
</svg>
