<svg xmlns="http://www.w3.org/2000/svg" width="872" height="1216" viewBox="0 0 872 1216">
  <rect width="100%" height="100%" fill="#faf6ec"/>
  <text x="24" y="34" font-family="Segoe UI, sans-serif" font-size="20" font-weight="700" fill="#222">Asthmatik — 24 icônes (Carte de Paul)</text>
  <g transform="translate(0,44)"><svg x="24" y="16" width="120" height="120" viewBox="0 0 120 120">
  <rect x="4" y="4" width="112" height="112" rx="26" fill="#fffdf5" stroke="#e6ddc4" stroke-width="2"/>
  <g fill="none" stroke="#33302b" stroke-width="3.2" stroke-linecap="round" stroke-linejoin="round">

    <path d="M33 52 Q33 22 60 22 Q87 22 87 52 Q60 40 33 52 Z" fill="#8a5a34"/>
    <circle cx="60" cy="58" r="27" fill="#ffd4a3"/>
    <path d="M45 55 h10"/><path d="M65 55 h10"/><ellipse cx="58" cy="72" rx="5" ry="6" fill="#33302b" stroke="none"/><circle cx="84" cy="76" r="9" fill="#ffd4a3"/><path d="M76 76 h16 M80 72 v8 M84 71 v10 M88 72 v8"/>
             <circle cx="98" cy="60" r="4" fill="#fff"/><circle cx="106" cy="66" r="3" fill="#fff"/><circle cx="100" cy="72" r="2.5" fill="#fff"/>
  </g>
</svg>
  <rect x="22" y="142" width="8" height="8" rx="2" fill="#3a9d5d"/>
  <text x="36" y="149" font-family="Segoe UI, sans-serif" font-size="11" fill="#333">Je tousse</text><svg x="236" y="16" width="120" height="120" viewBox="0 0 120 120">
  <rect x="4" y="4" width="112" height="112" rx="26" fill="#fffdf5" stroke="#e6ddc4" stroke-width="2"/>
  <g fill="none" stroke="#33302b" stroke-width="3.2" stroke-linecap="round" stroke-linejoin="round">

    <path d="M33 52 Q33 22 60 22 Q87 22 87 52 Q60 40 33 52 Z" fill="#8a5a34"/>
    <circle cx="60" cy="58" r="27" fill="#ffd4a3"/>
    <circle cx="50" cy="54" r="7" fill="#fff"/><circle cx="70" cy="54" r="7" fill="#fff"/><circle cx="50" cy="55" r="3" fill="#33302b" stroke="none"/><circle cx="70" cy="55" r="3" fill="#33302b" stroke="none"/><ellipse cx="60" cy="72" rx="7" ry="9" fill="#33302b" stroke="none"/><path d="M20 58 q14 -8 24 4"/><path d="M18 70 q16 -6 26 4"/><path d="M40 62 l6 0 -2 -4"/><path d="M42 74 l6 0 -2 -4"/>
  </g>
</svg>
  <rect x="234" y="142" width="8" height="8" rx="2" fill="#3a9d5d"/>
  <text x="248" y="149" font-family="Segoe UI, sans-serif" font-size="11" fill="#333">J'ai besoin d'air</text><svg x="448" y="16" width="120" height="120" viewBox="0 0 120 120">
  <rect x="4" y="4" width="112" height="112" rx="26" fill="#fffdf5" stroke="#e6ddc4" stroke-width="2"/>
  <g fill="none" stroke="#33302b" stroke-width="3.2" stroke-linecap="round" stroke-linejoin="round">

    <path d="M33 52 Q33 22 60 22 Q87 22 87 52 Q60 40 33 52 Z" fill="#8a5a34"/>
    <circle cx="60" cy="58" r="27" fill="#ffd4a3"/>
    <circle cx="50" cy="55" r="3.3" fill="#33302b" stroke="none"/><circle cx="70" cy="55" r="3.3" fill="#33302b" stroke="none"/><circle cx="60" cy="72" r="3.6" fill="#33302b" stroke="none"/><g stroke="none" fill="#33302b"><ellipse cx="90" cy="72" rx="5" ry="4"/><rect x="94" y="48" width="2.6" height="24"/><path d="M94 48 q9 1 9 9 q-4 -5 -9 -3 z"/></g>
             <path d="M70 66 q6 -5 12 0" opacity="0.7"/><path d="M70 74 q6 -5 12 0" opacity="0.45"/>
  </g>
</svg>
  <rect x="446" y="142" width="8" height="8" rx="2" fill="#3a9d5d"/>
  <text x="460" y="149" font-family="Segoe UI, sans-serif" font-size="11" fill="#333">Je siffle quand je respire</text><svg x="660" y="16" width="120" height="120" viewBox="0 0 120 120">
  <rect x="4" y="4" width="112" height="112" rx="26" fill="#fffdf5" stroke="#e6ddc4" stroke-width="2"/>
  <g fill="none" stroke="#33302b" stroke-width="3.2" stroke-linecap="round" stroke-linejoin="round">

    <path d="M33 52 Q33 22 60 22 Q87 22 87 52 Q60 40 33 52 Z" fill="#8a5a34"/>
    <circle cx="60" cy="58" r="27" fill="#ffd4a3"/>
    <path d="M45 55 h10"/><path d="M65 55 h10"/><path d="M50 68 q10 11 20 0 z" fill="#33302b" stroke="none"/><path d="M55 74 q5 7 10 0 z" fill="#ff8a8a" stroke="none"/><path d="M80 64 q10 -3 9 8"/><circle cx="90" cy="58" r="3.2" fill="#fff"/><circle cx="97" cy="65" r="2.6" fill="#fff"/><circle cx="31" cy="58" r="3.2" fill="#fff"/><circle cx="24" cy="64" r="2.6" fill="#fff"/>
  </g>
</svg>
  <rect x="658" y="142" width="8" height="8" rx="2" fill="#3a9d5d"/>
  <text x="672" y="149" font-family="Segoe UI, sans-serif" font-size="11" fill="#333">Je me sens très essoufflé</text><svg x="24" y="212" width="120" height="120" viewBox="0 0 120 120">
  <rect x="4" y="4" width="112" height="112" rx="26" fill="#fffdf5" stroke="#e6ddc4" stroke-width="2"/>
  <g fill="none" stroke="#33302b" stroke-width="3.2" stroke-linecap="round" stroke-linejoin="round">
<rect x="36" y="6" width="48" height="15" rx="3" fill="#bfb8a6"/><path d="M44 10 h32 M44 14 h32" stroke="#8f8a78" stroke-width="2"/>
    <path d="M33 52 Q33 22 60 22 Q87 22 87 52 Q60 40 33 52 Z" fill="#8a5a34"/>
    <circle cx="60" cy="58" r="27" fill="#ffd4a3"/>
    <path d="M44 47 l10 3"/><path d="M76 47 l-10 3"/><path d="M45 55 h10"/><path d="M65 55 h10"/><rect x="49" y="67" width="22" height="9" rx="2" fill="#fff"/><path d="M56 67 v9 M63 67 v9 M49 71.5 h22"/><path d="M46 22 v6 M60 22 v6 M74 22 v6"/><path d="M43 28 l3 -4 3 4 M57 28 l3 -4 3 4 M71 28 l3 -4 3 4"/>
  </g>
</svg>
  <rect x="22" y="338" width="8" height="8" rx="2" fill="#3a9d5d"/>
  <text x="36" y="345" font-family="Segoe UI, sans-serif" font-size="11" fill="#333">Je me sens oppressé</text><svg x="236" y="212" width="120" height="120" viewBox="0 0 120 120">
  <rect x="4" y="4" width="112" height="112" rx="26" fill="#fffdf5" stroke="#e6ddc4" stroke-width="2"/>
  <g fill="none" stroke="#33302b" stroke-width="3.2" stroke-linecap="round" stroke-linejoin="round">

    <path d="M33 52 Q33 22 60 22 Q87 22 87 52 Q60 40 33 52 Z" fill="#8a5a34"/>
    <circle cx="60" cy="58" r="27" fill="#ffd4a3"/>
    <path d="M45 55 h10"/><path d="M65 55 h10"/><rect x="49" y="67" width="22" height="9" rx="2" fill="#fff"/><path d="M56 67 v9 M63 67 v9 M49 71.5 h22"/><rect x="30" y="52" width="60" height="13" rx="4" fill="#a8794f"/><rect x="54" y="50" width="12" height="17" rx="2" fill="#8a5f38"/>
             <path d="M18 58 l10 -3 M18 58 l10 3"/><path d="M102 58 l-10 -3 M102 58 l-10 3"/>
  </g>
</svg>
  <rect x="234" y="338" width="8" height="8" rx="2" fill="#3a9d5d"/>
  <text x="248" y="345" font-family="Segoe UI, sans-serif" font-size="11" fill="#333">Je me sens serré</text><svg x="448" y="212" width="120" height="120" viewBox="0 0 120 120">
  <rect x="4" y="4" width="112" height="112" rx="26" fill="#fffdf5" stroke="#e6ddc4" stroke-width="2"/>
  <g fill="none" stroke="#33302b" stroke-width="3.2" stroke-linecap="round" stroke-linejoin="round">

      <circle cx="72" cy="34" r="8" fill="#33302b" stroke="none"/>
      <g stroke="#33302b" stroke-width="6" fill="none" stroke-linecap="round">
        <path d="M68 44 l-9 15"/><path d="M59 59 l-13 5"/><path d="M62 53 l7 16"/><path d="M69 69 l11 -3"/>
        <path d="M68 47 l14 5"/><path d="M64 49 l-13 4"/>
      </g>
      <circle cx="30" cy="32" r="3.4" fill="#fff"/><circle cx="23" cy="30" r="2.6" fill="#fff"/><path d="M40 30 q6 -3 11 1" stroke="#33302b" stroke-width="3.2"/>
  </g>
</svg>
  <rect x="446" y="338" width="8" height="8" rx="2" fill="#3a9d5d"/>
  <text x="460" y="345" font-family="Segoe UI, sans-serif" font-size="11" fill="#333">Je suis gêné après un effort physique</text><svg x="660" y="212" width="120" height="120" viewBox="0 0 120 120">
  <rect x="4" y="4" width="112" height="112" rx="26" fill="#fffdf5" stroke="#e6ddc4" stroke-width="2"/>
  <g fill="none" stroke="#33302b" stroke-width="3.2" stroke-linecap="round" stroke-linejoin="round">

      <circle cx="42" cy="66" r="16" fill="#fff" stroke="#33302b"/>
      <path d="M42 54 l6 5 -2 8 h-8 l-2 -8 z" fill="#33302b" stroke="none"/>
      <path d="M28 62 l6 3 M56 62 l-6 3 M42 80 l0 -4" stroke="#33302b"/>
      <rect x="60" y="58" width="36" height="20" rx="10" fill="#cfd3d8" stroke="#33302b"/>
      <path d="M70 64 v8 M66 68 h8" stroke="#33302b"/><circle cx="86" cy="66" r="2.4" fill="#33302b" stroke="none"/><circle cx="90" cy="72" r="2.4" fill="#33302b" stroke="none"/>
      <circle cx="84" cy="34" r="13" fill="#e23b3b" stroke="#33302b"/><rect x="80" y="29" width="3.4" height="10" rx="1" fill="#fff" stroke="none"/><rect x="86" y="29" width="3.4" height="10" rx="1" fill="#fff" stroke="none"/>
  </g>
</svg>
  <rect x="658" y="338" width="8" height="8" rx="2" fill="#3a9d5d"/>
  <text x="672" y="345" font-family="Segoe UI, sans-serif" font-size="11" fill="#333">J'arrête mon sport ou mon jeu</text><svg x="24" y="408" width="120" height="120" viewBox="0 0 120 120">
  <rect x="4" y="4" width="112" height="112" rx="26" fill="#fffdf5" stroke="#e6ddc4" stroke-width="2"/>
  <g fill="none" stroke="#33302b" stroke-width="3.2" stroke-linecap="round" stroke-linejoin="round">

      <path d="M60 34 v12"/><path d="M60 46 q-3 -6 -9 -5 M60 46 q3 -6 9 -5"/>
      <path d="M51 43 q-17 5 -17 26 q0 15 11 15 q9 0 9 -13 v-27 z" fill="#ffb3ba" stroke="#33302b"/>
      <path d="M69 43 q17 5 17 26 q0 15 -11 15 q-9 0 -9 -13 v-27 z" fill="#ffb3ba" stroke="#33302b"/>
      <circle cx="76" cy="72" r="8" fill="#7ec87e" stroke="#33302b"/><path d="M76 62 v-4 M76 82 v4 M66 72 h-4 M86 72 h4 M69 65 l-3 -3 M83 79 l3 3 M69 79 l-3 3 M83 65 l3 -3"/>
      <circle cx="73" cy="71" r="1.4" fill="#33302b" stroke="none"/><circle cx="79" cy="71" r="1.4" fill="#33302b" stroke="none"/>
  </g>
</svg>
  <rect x="22" y="534" width="8" height="8" rx="2" fill="#3a9d5d"/>
  <text x="36" y="541" font-family="Segoe UI, sans-serif" font-size="11" fill="#333">Je fais des bronchites</text><svg x="236" y="408" width="120" height="120" viewBox="0 0 120 120">
  <rect x="4" y="4" width="112" height="112" rx="26" fill="#fffdf5" stroke="#e6ddc4" stroke-width="2"/>
  <g fill="none" stroke="#33302b" stroke-width="3.2" stroke-linecap="round" stroke-linejoin="round">

    <path d="M33 52 Q33 22 60 22 Q87 22 87 52 Q60 40 33 52 Z" fill="#8a5a34"/>
    <circle cx="60" cy="58" r="27" fill="#ffd4a3"/>
    <path d="M45 55 h10"/><path d="M65 55 h10"/><path d="M52 70 q8 8 16 2 q-8 8 -16 -2 z" fill="#33302b" stroke="none"/><path d="M74 74 q9 1 13 8"/><path d="M92 80 q-6.6000000000000005 9.9 0 14.3 q6.6000000000000005 -4.4 0 -14.3 z" fill="#7fd4ff"/><circle cx="99" cy="90" r="2.4" fill="#7fd4ff" stroke="#33302b"/>
  </g>
</svg>
  <rect x="234" y="534" width="8" height="8" rx="2" fill="#3a9d5d"/>
  <text x="248" y="541" font-family="Segoe UI, sans-serif" font-size="11" fill="#333">Je crache</text><svg x="448" y="408" width="120" height="120" viewBox="0 0 120 120">
  <rect x="4" y="4" width="112" height="112" rx="26" fill="#fffdf5" stroke="#e6ddc4" stroke-width="2"/>
  <g fill="none" stroke="#33302b" stroke-width="3.2" stroke-linecap="round" stroke-linejoin="round">

    <path d="M33 52 Q33 22 60 22 Q87 22 87 52 Q60 40 33 52 Z" fill="#8a5a34"/>
    <circle cx="60" cy="58" r="27" fill="#ffd4a3"/>
    <path d="M45 55 h10"/><path d="M65 55 h10"/><ellipse cx="60" cy="72" rx="7" ry="9" fill="#33302b" stroke="none"/><path d="M40 68 l-13 4 4 11 13 -4 z" fill="#fff"/>
             <circle cx="88" cy="56" r="2.6" fill="#7fd4ff" stroke="#33302b"/><circle cx="97" cy="63" r="2.1" fill="#7fd4ff" stroke="#33302b"/><circle cx="90" cy="70" r="1.9" fill="#7fd4ff" stroke="#33302b"/>
  </g>
</svg>
  <rect x="446" y="534" width="8" height="8" rx="2" fill="#3a7bd6"/>
  <text x="460" y="541" font-family="Segoe UI, sans-serif" font-size="11" fill="#333">J'éternue</text><svg x="660" y="408" width="120" height="120" viewBox="0 0 120 120">
  <rect x="4" y="4" width="112" height="112" rx="26" fill="#fffdf5" stroke="#e6ddc4" stroke-width="2"/>
  <g fill="none" stroke="#33302b" stroke-width="3.2" stroke-linecap="round" stroke-linejoin="round">

      <ellipse cx="60" cy="58" rx="30" ry="18" fill="#fff" stroke="#33302b"/>
      <path d="M32 60 q26 12 56 0" stroke="#e23b3b"/><path d="M38 54 q6 -3 12 0 M74 55 q-6 -3 -12 0" stroke="#e23b3b"/>
      <circle cx="60" cy="58" r="12" fill="#8fd0ff" stroke="#33302b"/><circle cx="60" cy="58" r="5" fill="#33302b" stroke="none"/><circle cx="64" cy="54" r="2" fill="#fff" stroke="none"/>
      <path d="M60 76 q-6 9 0 13 q6 -4 0 -13 z" fill="#7fd4ff"/><path d="M90 36 l1.6 4.4 4.4 1.6 -4.4 1.6 -1.6 4.4 -1.6 -4.4 -4.4 -1.6 4.4 -1.6 z" fill="#ffd447"/><path d="M30 39.2 l1.2800000000000002 3.5200000000000005 3.5200000000000005 1.2800000000000002 -3.5200000000000005 1.2800000000000002 -1.2800000000000002 3.5200000000000005 -1.2800000000000002 -3.5200000000000005 -3.5200000000000005 -1.2800000000000002 3.5200000000000005 -1.2800000000000002 z" fill="#ffd447"/>
  </g>
</svg>
  <rect x="658" y="534" width="8" height="8" rx="2" fill="#3a7bd6"/>
  <text x="672" y="541" font-family="Segoe UI, sans-serif" font-size="11" fill="#333">J'ai les yeux qui piquent</text><svg x="24" y="604" width="120" height="120" viewBox="0 0 120 120">
  <rect x="4" y="4" width="112" height="112" rx="26" fill="#fffdf5" stroke="#e6ddc4" stroke-width="2"/>
  <g fill="none" stroke="#33302b" stroke-width="3.2" stroke-linecap="round" stroke-linejoin="round">

    <path d="M33 52 Q33 22 60 22 Q87 22 87 52 Q60 40 33 52 Z" fill="#8a5a34"/>
    <circle cx="60" cy="58" r="27" fill="#ffd4a3"/>
    <path d="M45 55 q5 4 10 0"/><path d="M65 55 q5 4 10 0"/><path d="M52 72 h16"/><path d="M60 56 q-5 9 0 13 q5 0 5 -3" fill="#ffd4a3"/><ellipse cx="60" cy="76" rx="3.2" ry="5.4" fill="#7fd4ff" stroke="#33302b"/>
             <path d="M80 45.2 l1.2800000000000002 3.5200000000000005 3.5200000000000005 1.2800000000000002 -3.5200000000000005 1.2800000000000002 -1.2800000000000002 3.5200000000000005 -1.2800000000000002 -3.5200000000000005 -3.5200000000000005 -1.2800000000000002 3.5200000000000005 -1.2800000000000002 z" fill="#ffd447"/><path d="M40 68 l-11 4 3 9 11 -4 z" fill="#fff"/>
  </g>
</svg>
  <rect x="22" y="730" width="8" height="8" rx="2" fill="#3a7bd6"/>
  <text x="36" y="737" font-family="Segoe UI, sans-serif" font-size="11" fill="#333">Mon nez pique / coule</text><svg x="236" y="604" width="120" height="120" viewBox="0 0 120 120">
  <rect x="4" y="4" width="112" height="112" rx="26" fill="#fffdf5" stroke="#e6ddc4" stroke-width="2"/>
  <g fill="none" stroke="#33302b" stroke-width="3.2" stroke-linecap="round" stroke-linejoin="round">

    <path d="M33 52 Q33 22 60 22 Q87 22 87 52 Q60 40 33 52 Z" fill="#8a5a34"/>
    <circle cx="60" cy="58" r="27" fill="#ffd4a3"/>
    <path d="M44 48 l10 3"/><path d="M76 48 l-10 3"/><path d="M45 55 h10"/><path d="M65 55 h10"/><rect x="49" y="67" width="22" height="9" rx="2" fill="#fff"/><path d="M56 67 v9 M63 67 v9 M49 71.5 h22"/><path d="M48 84 q12 -7 24 0" fill="#ffd4a3"/><path d="M52 82 q8 6 16 0" stroke="#e23b3b"/>
             <path d="M60 80 l-2 -6 M60 80 l2 -6 M67 82 l1 -6 M53 82 l-1 -6" stroke="#e2a13b"/>
  </g>
</svg>
  <rect x="234" y="730" width="8" height="8" rx="2" fill="#3a7bd6"/>
  <text x="248" y="737" font-family="Segoe UI, sans-serif" font-size="11" fill="#333">Ma gorge me pique</text><svg x="448" y="604" width="120" height="120" viewBox="0 0 120 120">
  <rect x="4" y="4" width="112" height="112" rx="26" fill="#fffdf5" stroke="#e6ddc4" stroke-width="2"/>
  <g fill="none" stroke="#33302b" stroke-width="3.2" stroke-linecap="round" stroke-linejoin="round">

    <path d="M33 52 Q33 22 60 22 Q87 22 87 52 Q60 40 33 52 Z" fill="#8a5a34"/>
    <circle cx="60" cy="58" r="27" fill="#ffd4a3"/>
    <path d="M45 55 q5 4 10 0"/><path d="M65 55 q5 4 10 0"/><ellipse cx="60" cy="73" rx="5" ry="6" fill="#33302b" stroke="none"/><path d="M74 26 h12 l-12 12 h12" stroke="#33302b"/><path d="M90 40 h8 l-8 8 h8" stroke="#33302b"/><path d="M100 52 h5 l-5 5 h5" stroke="#33302b"/>
  </g>
</svg>
  <rect x="446" y="730" width="8" height="8" rx="2" fill="#8a6d3b"/>
  <text x="460" y="737" font-family="Segoe UI, sans-serif" font-size="11" fill="#333">Je suis fatigué</text><svg x="660" y="604" width="120" height="120" viewBox="0 0 120 120">
  <rect x="4" y="4" width="112" height="112" rx="26" fill="#fffdf5" stroke="#e6ddc4" stroke-width="2"/>
  <g fill="none" stroke="#33302b" stroke-width="3.2" stroke-linecap="round" stroke-linejoin="round">

    <path d="M33 52 Q33 22 60 22 Q87 22 87 52 Q60 40 33 52 Z" fill="#8a5a34"/>
    <circle cx="60" cy="58" r="27" fill="#ffd4a3"/>
    <circle cx="50" cy="55" r="3.3" fill="#33302b" stroke="none"/><circle cx="70" cy="55" r="3.3" fill="#33302b" stroke="none"/><path d="M50 72 q10 3 20 0"/><path d="M66 20 h34 a6 6 0 0 1 6 6 v14 a6 6 0 0 1 -6 6 h-18 l-7 8 v-8 h-9 a6 6 0 0 1 -6 -6 v-14 a6 6 0 0 1 6 -6 z" fill="#fff"/>
             <circle cx="78" cy="33" r="2.4" fill="#33302b" stroke="none"/><circle cx="86" cy="33" r="2.4" fill="#33302b" stroke="none"/><circle cx="94" cy="33" r="2.4" fill="#33302b" stroke="none"/>
  </g>
</svg>
  <rect x="658" y="730" width="8" height="8" rx="2" fill="#d64545"/>
  <text x="672" y="737" font-family="Segoe UI, sans-serif" font-size="11" fill="#333">J'ai du mal à parler</text><svg x="24" y="800" width="120" height="120" viewBox="0 0 120 120">
  <rect x="4" y="4" width="112" height="112" rx="26" fill="#fffdf5" stroke="#e6ddc4" stroke-width="2"/>
  <g fill="none" stroke="#33302b" stroke-width="3.2" stroke-linecap="round" stroke-linejoin="round">

    <path d="M33 52 Q33 22 60 22 Q87 22 87 52 Q60 40 33 52 Z" fill="#8a5a34"/>
    <circle cx="60" cy="58" r="27" fill="#ffd4a3"/>
    <circle cx="50" cy="57" r="3.3" fill="#33302b" stroke="none"/><circle cx="70" cy="57" r="3.3" fill="#33302b" stroke="none"/><path d="M44 49 l10 3"/><path d="M76 49 l-10 3"/><path d="M52 72 h16"/><path d="M66 20 h34 a6 6 0 0 1 6 6 v14 a6 6 0 0 1 -6 6 h-18 l-7 8 v-8 h-9 a6 6 0 0 1 -6 -6 v-14 a6 6 0 0 1 6 -6 z" fill="#fff"/>
             <line x1="66" y1="44" x2="104" y2="20" stroke="#e23b3b" stroke-width="5"/>
  </g>
</svg>
  <rect x="22" y="926" width="8" height="8" rx="2" fill="#d64545"/>
  <text x="36" y="933" font-family="Segoe UI, sans-serif" font-size="11" fill="#333">Je ne peux presque plus parler</text><svg x="236" y="800" width="120" height="120" viewBox="0 0 120 120">
  <rect x="4" y="4" width="112" height="112" rx="26" fill="#fffdf5" stroke="#e6ddc4" stroke-width="2"/>
  <g fill="none" stroke="#33302b" stroke-width="3.2" stroke-linecap="round" stroke-linejoin="round">

      <rect x="44" y="62" width="34" height="16" rx="4" fill="#2f7bd6" stroke="#33302b"/>
      <rect x="46" y="34" width="20" height="30" rx="5" fill="#3f8be0" stroke="#33302b"/>
      <rect x="49" y="26" width="14" height="10" rx="3" fill="#6aa8ee" stroke="#33302b"/>
      <circle cx="60" cy="56" r="34" fill="none" stroke="#e23b3b" stroke-width="6"/>
      <line x1="36" y1="80" x2="84" y2="32" stroke="#e23b3b" stroke-width="6"/>
  </g>
</svg>
  <rect x="234" y="926" width="8" height="8" rx="2" fill="#d64545"/>
  <text x="248" y="933" font-family="Segoe UI, sans-serif" font-size="11" fill="#333">Le spray bleu ne fonctionne pas</text><svg x="448" y="800" width="120" height="120" viewBox="0 0 120 120">
  <rect x="4" y="4" width="112" height="112" rx="26" fill="#fffdf5" stroke="#e6ddc4" stroke-width="2"/>
  <g fill="none" stroke="#33302b" stroke-width="3.2" stroke-linecap="round" stroke-linejoin="round">

    <path d="M33 52 Q33 22 60 22 Q87 22 87 52 Q60 40 33 52 Z" fill="#8a5a34"/>
    <circle cx="60" cy="58" r="27" fill="#ffd4a3"/>
    <circle cx="50" cy="57" r="3.3" fill="#33302b" stroke="none"/><circle cx="70" cy="57" r="3.3" fill="#33302b" stroke="none"/><path d="M44 49 l10 3"/><path d="M76 49 l-10 3"/><path d="M47 70 q13 9 26 0 q-13 5 -26 0 z" fill="#5aa0e0" stroke="#33302b"/><circle cx="46" cy="66" r="3.5" fill="#a9c9ec" stroke="none"/><circle cx="74" cy="66" r="3.5" fill="#a9c9ec" stroke="none"/>
  </g>
</svg>
  <rect x="446" y="926" width="8" height="8" rx="2" fill="#d64545"/>
  <text x="460" y="933" font-family="Segoe UI, sans-serif" font-size="11" fill="#333">J'ai les lèvres bleues</text><svg x="660" y="800" width="120" height="120" viewBox="0 0 120 120">
  <rect x="4" y="4" width="112" height="112" rx="26" fill="#fffdf5" stroke="#e6ddc4" stroke-width="2"/>
  <g fill="none" stroke="#33302b" stroke-width="3.2" stroke-linecap="round" stroke-linejoin="round">

    <path d="M33 52 Q33 22 60 22 Q87 22 87 52 Q60 40 33 52 Z" fill="#8a5a34"/>
    <circle cx="60" cy="58" r="27" fill="#ffd4a3"/>
    <path d="M46 55 a3.2 3.2 0 1 1 6 0 a2 2 0 1 1 -4 0"/><path d="M68 55 a3.2 3.2 0 1 1 6 0 a2 2 0 1 1 -4 0"/><path d="M49 72 q5 5 10 0 q5 -5 10 0"/><path d="M40 24 c8 -9 17 6 25 -3 c8 -7 16 7 8 12 c9 3 1 13 -8 9 c-9 4 -19 -3 -14 -10" fill="none" stroke="#33302b"/>
             <path d="M92 24 q0 -8 6 -8 q6 0 6 6 q0 5 -6 6 v3" stroke="#33302b"/><circle cx="98" cy="45" r="1.7" fill="#33302b" stroke="none"/>
  </g>
</svg>
  <rect x="658" y="926" width="8" height="8" rx="2" fill="#d64545"/>
  <text x="672" y="933" font-family="Segoe UI, sans-serif" font-size="11" fill="#333">Mes idées s'embrouillent</text><svg x="24" y="996" width="120" height="120" viewBox="0 0 120 120">
  <rect x="4" y="4" width="112" height="112" rx="26" fill="#fffdf5" stroke="#e6ddc4" stroke-width="2"/>
  <g fill="none" stroke="#33302b" stroke-width="3.2" stroke-linecap="round" stroke-linejoin="round">

      <path d="M60 46 c-10 -13 -30 -3 -30 14 c0 15 22 27 30 33 c8 -6 30 -18 30 -33 c0 -17 -20 -27 -30 -14 z" fill="#ff5d73" stroke="#33302b"/>
      <path d="M34 70 h11 l4 -12 6 24 4 -12 h13" stroke="#fff" stroke-width="3"/>
      <path d="M98 52 h12 M98 63 h16 M98 74 h12" stroke="#33302b"/>
  </g>
</svg>
  <rect x="22" y="1122" width="8" height="8" rx="2" fill="#d64545"/>
  <text x="36" y="1129" font-family="Segoe UI, sans-serif" font-size="11" fill="#333">Mon cœur bat vite</text><svg x="236" y="996" width="120" height="120" viewBox="0 0 120 120">
  <rect x="4" y="4" width="112" height="112" rx="26" fill="#fffdf5" stroke="#e6ddc4" stroke-width="2"/>
  <g fill="none" stroke="#33302b" stroke-width="3.2" stroke-linecap="round" stroke-linejoin="round">

    <path d="M33 52 Q33 22 60 22 Q87 22 87 52 Q60 40 33 52 Z" fill="#8a5a34"/>
    <circle cx="60" cy="58" r="27" fill="#ffd4a3"/>
    <path d="M45 55 h10"/><path d="M65 55 h10"/><path d="M52 72 h16"/><path d="M39 40 q-6 9 0 13 q6 -4 0 -13 z" fill="#7fd4ff"/><path d="M80 42 q-6 9 0 13 q6 -4 0 -13 z" fill="#7fd4ff"/><path d="M33 60 q-5.4 8.1 0 11.700000000000001 q5.4 -3.6 0 -11.700000000000001 z" fill="#7fd4ff"/><path d="M88 60 q-5.4 8.1 0 11.700000000000001 q5.4 -3.6 0 -11.700000000000001 z" fill="#7fd4ff"/><path d="M46 40 q14 -6 28 0"/>
  </g>
</svg>
  <rect x="234" y="1122" width="8" height="8" rx="2" fill="#d64545"/>
  <text x="248" y="1129" font-family="Segoe UI, sans-serif" font-size="11" fill="#333">Je transpire</text><svg x="448" y="996" width="120" height="120" viewBox="0 0 120 120">
  <rect x="4" y="4" width="112" height="112" rx="26" fill="#fffdf5" stroke="#e6ddc4" stroke-width="2"/>
  <g fill="none" stroke="#33302b" stroke-width="3.2" stroke-linecap="round" stroke-linejoin="round">

    <path d="M33 52 Q33 22 60 22 Q87 22 87 52 Q60 40 33 52 Z" fill="#8a5a34"/>
    <circle cx="60" cy="58" r="27" fill="#ffd4a3"/>
    <circle cx="50" cy="57" r="3.3" fill="#33302b" stroke="none"/><circle cx="70" cy="57" r="3.3" fill="#33302b" stroke="none"/><path d="M44 49 l10 3"/><path d="M76 49 l-10 3"/><path d="M49 72 q5 5 10 0 q5 -5 10 0"/><path d="M82 44 q-6 9 0 13 q6 -4 0 -13 z" fill="#7fd4ff"/><path d="M30 32 v-8 M37 30 v-8 M44 32 v-8" stroke="#7fd4ff"/>
  </g>
</svg>
  <rect x="446" y="1122" width="8" height="8" rx="2" fill="#d64545"/>
  <text x="460" y="1129" font-family="Segoe UI, sans-serif" font-size="11" fill="#333">Je suis angoissé</text><svg x="660" y="996" width="120" height="120" viewBox="0 0 120 120">
  <rect x="4" y="4" width="112" height="112" rx="26" fill="#fffdf5" stroke="#e6ddc4" stroke-width="2"/>
  <g fill="none" stroke="#33302b" stroke-width="3.2" stroke-linecap="round" stroke-linejoin="round">

    <path d="M33 52 Q33 22 60 22 Q87 22 87 52 Q60 40 33 52 Z" fill="#8a5a34"/>
    <circle cx="60" cy="58" r="27" fill="#ffd4a3"/>
    <path d="M45 57 q5 -7 10 0"/><path d="M65 57 q5 -7 10 0"/><path d="M47 68 q13 13 26 0 z" fill="#33302b" stroke="none"/><path d="M47 68 q13 13 26 0"/><circle cx="46" cy="65" r="4" fill="#ff9a9a" stroke="none"/><circle cx="74" cy="65" r="4" fill="#ff9a9a" stroke="none"/>
             <circle cx="86" cy="66" r="6" fill="#ffd4a3"/><path d="M80 80 q10 -6 8 -18" stroke-width="6"/>
             <path d="M28 26 l1.6 4.4 4.4 1.6 -4.4 1.6 -1.6 4.4 -1.6 -4.4 -4.4 -1.6 4.4 -1.6 z" fill="#ffd447"/><path d="M96 35.2 l1.2800000000000002 3.5200000000000005 3.5200000000000005 1.2800000000000002 -3.5200000000000005 1.2800000000000002 -1.2800000000000002 3.5200000000000005 -1.2800000000000002 -3.5200000000000005 -3.5200000000000005 -1.2800000000000002 3.5200000000000005 -1.2800000000000002 z" fill="#ffd447"/>
  </g>
</svg>
  <rect x="658" y="1122" width="8" height="8" rx="2" fill="#c58a1a"/>
  <text x="672" y="1129" font-family="Segoe UI, sans-serif" font-size="11" fill="#333">Je suis en forme</text></g>
</svg>