<svg xmlns="http://www.w3.org/2000/svg" viewBox="0 0 120 120" width="120" height="120">
  <rect x="4" y="4" width="112" height="112" rx="26" fill="#fffdf5" stroke="#e6ddc4" stroke-width="2"/>
  <g fill="none" stroke="#33302b" stroke-width="3.2" stroke-linecap="round" stroke-linejoin="round">

    <path d="M33 52 Q33 22 60 22 Q87 22 87 52 Q60 40 33 52 Z" fill="#8a5a34"/>
    <circle cx="60" cy="58" r="27" fill="#ffd4a3"/>
    <path d="M46 55 a3.2 3.2 0 1 1 6 0 a2 2 0 1 1 -4 0"/><path d="M68 55 a3.2 3.2 0 1 1 6 0 a2 2 0 1 1 -4 0"/><path d="M49 72 q5 5 10 0 q5 -5 10 0"/><path d="M40 24 c8 -9 17 6 25 -3 c8 -7 16 7 8 12 c9 3 1 13 -8 9 c-9 4 -19 -3 -14 -10" fill="none" stroke="#33302b"/>
             <path d="M92 24 q0 -8 6 -8 q6 0 6 6 q0 5 -6 6 v3" stroke="#33302b"/><circle cx="98" cy="45" r="1.7" fill="#33302b" stroke="none"/>
  </g>
</svg>